<?xml version="1.0" encoding="utf-8"?>
<!-- Generator: Adobe Illustrator 18.0.0, SVG Export Plug-In . SVG Version: 6.00 Build 0)  -->
<!DOCTYPE svg PUBLIC "-//W3C//DTD SVG 1.1//EN" "http://www.w3.org/Graphics/SVG/1.1/DTD/svg11.dtd">
<svg version="1.1" id="图层_1" xmlns="http://www.w3.org/2000/svg" xmlns:xlink="http://www.w3.org/1999/xlink" x="0px" y="0px"
	 viewBox="0 0 18 18" enable-background="new 0 0 18 18" xml:space="preserve">
<g>
	<path fill="#999999" d="M9,3.6l1.6,3.7l4.1,0.4l-3,2.7l0.9,4L9,12.4l-3.5,2.1l0.9-4l-3-2.7l4.1-0.4L9,3.6 M9,1.6
		C8.2,1.6,7.5,2,7.2,2.8L6,5.4L3.1,5.7C2.3,5.8,1.6,6.3,1.4,7.1C1.1,7.9,1.4,8.7,2,9.2l2.2,1.9L3.5,14c-0.2,0.8,0.1,1.6,0.8,2
		c0.3,0.3,0.8,0.4,1.2,0.4c0.3,0,0.7-0.1,1-0.3L9,14.7l2.5,1.5c0.3,0.2,0.7,0.3,1,0.3c0.4,0,0.8-0.1,1.2-0.4c0.6-0.5,0.9-1.3,0.8-2
		l-0.6-2.8L16,9.2c0.6-0.5,0.8-1.4,0.6-2.1c-0.2-0.8-0.9-1.3-1.7-1.4L12,5.4l-1.2-2.7C10.5,2,9.8,1.6,9,1.6L9,1.6z"/>
</g>
</svg>
