<?xml version="1.0" encoding="utf-8"?>
<!-- Generator: Adobe Illustrator 18.0.0, SVG Export Plug-In . SVG Version: 6.00 Build 0)  -->
<!DOCTYPE svg PUBLIC "-//W3C//DTD SVG 1.1//EN" "http://www.w3.org/Graphics/SVG/1.1/DTD/svg11.dtd">
<svg version="1.1" id="图层_1" xmlns="http://www.w3.org/2000/svg" xmlns:xlink="http://www.w3.org/1999/xlink" x="0px" y="0px"
	 viewBox="0 0 18 18" enable-background="new 0 0 18 18" xml:space="preserve">
<path fill="#999999" d="M13,5V3c0-1.7-1.3-3-3-3C8.3,0,7,1.3,7,3c0,1.1-0.9,2-2,2H3H1v11h2h2h2h8l2-11H13z M3,14V7h2v7H3z M13.3,14
	H7V6.4c1.2-0.7,2-2,2-3.4c0-0.6,0.4-1,1-1c0.6,0,1,0.4,1,1v4h3.6L13.3,14z"/>
</svg>
